inDegrees=yes
name=ik_S53_A03_T02
DataType=double
version=3
OpenSimVersion=4.3-2021-08-27-4bc7ad9
endheader
time	pelvis_tilt	pelvis_list	pelvis_rotation	pelvis_tx	pelvis_ty	pelvis_tz	hip_flexion_r	hip_adduction_r	hip_rotation_r	knee_angle_r	knee_angle_r_beta	ankle_angle_r	subtalar_angle_r	mtp_angle_r	hip_flexion_l	hip_adduction_l	hip_rotation_l	knee_angle_l	knee_angle_l_beta	ankle_angle_l	subtalar_angle_l	mtp_angle_l	lumbar_extension	lumbar_bending	lumbar_rotation	arm_flex_r	arm_add_r	arm_rot_r	elbow_flex_r	pro_sup_r	wrist_flex_r	wrist_dev_r	arm_flex_l	arm_add_l	arm_rot_l	elbow_flex_l	pro_sup_l	wrist_flex_l	wrist_dev_l
32.33999999999946	5.929215773061552	-1.398605058199098	-83.23360670215033	0	0.9399999999999999	0	22.83827206434779	-9.65004646915294	-7.179083143609456	2.009307119839449	0.03506902492496266	0	0	0	-3.463853329423934	8.855384134449086	-6.313418924462369	13.11241342215596	0.2288547870993187	0	0	0	0	0	0	44.33001030427967	-44.33001030427967	4.996549794534291	84.95064398851328	85.00345047957535	0	0	44.33001030427967	-44.33001030427967	4.996549794534291	84.95064398851328	85.00345047957497	0	0
32.35999999999946	5.833666638416974	-1.514103859594717	-83.07943453205955	0	0.9399999999999999	0	23.3108693714108	-8.876900825470782	-4.930736530629863	2.087263250648635	0.03642961607969834	0	0	0	-4.144193830880109	8.852552540518779	-6.610875062729847	13.27130628412524	0.2316279906985996	0	0	0	0	0	0	44.33088931857132	-44.33088931857132	4.996557831183163	84.9507589588757	85.00344244292671	0	0	44.33088931857132	-44.33088931857132	4.996557831183163	84.9507589588757	85.00344244292634	0	0
32.37999999999946	5.524185356647644	-1.656730238330354	-82.86536486325421	0	0.9399999999999999	0	22.63438977379608	-7.94329960612737	-4.53348449194572	1.265139620117685	0.02208085186848389	0	0	0	-4.406191785007309	8.191993932887881	-6.553187685996486	16.14738662365336	0.2818250621752416	0	0	0	0	0	0	44.33102586244405	-44.33102586244405	4.996559244119156	84.95077917199961	85.00344102999082	0	0	44.33102586244405	-44.33102586244405	4.996559244119156	84.95077917199961	85.00344102999044	0	0
32.39999999999947	5.070568496147481	-1.822862782984362	-82.74730778251114	0	0.9399999999999999	0	22.43913443182239	-7.748218391478769	-4.943745240800653	4.289242086586737	0.07486139682605027	0	0	0	-5.459593737223171	7.976259726972001	-7.114063017589748	15.38888985114458	0.268586796129213	0	0	0	0	0	0	44.33121860844542	-44.33121860844542	4.996561240365968	84.95080772982836	85.00343903374402	0	0	44.33121860844542	-44.33121860844542	4.996561240365968	84.95080772982836	85.00343903374363	0	0
32.41999999999947	4.439868483782664	-2.191104143547587	-82.68049377597509	0	0.9399999999999999	0	20.52049670570944	-7.381340517742458	-4.854107339937964	5.283558487350121	0.09221549182595079	0	0	0	-6.101964839149109	7.064127707836427	-7.517257674139101	18.68126306287611	0.3260495488783885	0	0	0	0	0	0	44.3368731628212	-44.3368731628212	4.996610632590958	84.95151432307017	85.0033896415205	0	0	44.3368731628212	-44.3368731628212	4.996610632590958	84.95151432307017	85.00338964152014	0	0
32.43999999999947	3.615769372859152	-2.705557314936043	-82.6687931354836	0	0.9399999999999999	0	19.29850441361624	-6.787816750760856	-5.750842896386418	6.195247807669225	0.1081274722207884	0	0	0	-6.639524337063861	5.848049435063396	-8.022009068085881	20.8624353433041	0.36411818672509	0	0	0	0	0	0	44.33705584514231	-44.33705584514231	4.996612505324039	84.95154111394054	85.00338776878752	0	0	44.33705584514231	-44.33705584514231	4.996612505324039	84.95154111394054	85.00338776878716	0	0
32.45999999999948	3.157332514099755	-3.013936195692031	-82.68236579513716	0	0.9399999999999999	0	19.03090103556304	-6.315663107141456	-5.92318309956188	6.203204234002146	0.1082663380569902	0	0	0	-6.884168598796588	4.681878352461212	-8.617666461285957	23.46948550703156	0.4096197958467915	0	0	0	0	0	0	44.33738855972911	-44.33738855972911	4.996615913584147	84.9515898716932	85.00338436052749	0	0	44.33738855972911	-44.33738855972911	4.996615913584147	84.9515898716932	85.00338436052714	0	0
32.47999999999948	2.219295325253124	-3.749518192000503	-82.80569746039114	0	0.9399999999999999	0	19.44011141923996	-4.880823002918914	-3.693528594877091	10.80415810683573	0.1885681318703207	0	0	0	-7.245832391415008	2.716467248187894	-9.445418932698983	25.36448214689899	0.4426937265267075	0	0	0	0	0	0	44.34201583091372	-44.34201583091372	4.996656493254145	84.95217039465363	85.00334378085874	0	0	44.34201583091372	-44.34201583091372	4.996656493254145	84.95217039465363	85.00334378085837	0	0
32.49999999999948	0.515629853157384	-5.562164542259158	-83.30960418027998	0	0.9399999999999999	0	17.55517183322672	-1.271844744687885	-0.6510105011624244	11.50979362692814	0.200883795014956	0	0	0	-8.346157163943293	-0.5107816910984059	-10.90577837292908	29.10246323417812	0.5079338038770058	0	0	0	0	0	0	44.34423212967239	-44.34423212967239	4.996676267866405	84.95245328548563	85.00332400624713	0	0	44.34423212967239	-44.34423212967239	4.996676267866405	84.95245328548563	85.00332400624677	0	0
32.51999999999948	-0.07595496127732884	-6.461829172856089	-83.40022479716025	0	0.9399999999999999	0	15.24207482869167	-0.3376826066119213	-0.04638120247415306	9.891537653619798	0.1726399001406599	0	0	0	-9.292809282531831	-1.422375598225825	-11.27483962758417	32.13178183320002	0.5608053875218397	0	0	0	0	0	0	44.3444013868688	-44.3444013868688	4.996677992234068	84.95247795387593	85.00332228187953	0	0	44.3444013868688	-44.3444013868688	4.996677992234068	84.95247795387593	85.00332228187918	0	0
32.53999999999949	-0.5050296795530994	-7.339359106581397	-83.14976017978658	0	0.9399999999999999	0	14.49700932169708	0.1930998843780977	-0.2865580064973303	12.43534005339207	0.2170376275368192	0	0	0	-8.494898515443323	-5.108718347508691	-13.37514250981692	38.07365400363123	0.6645106206284861	0	0	0	0	0	0	44.35033649795684	-44.35033649795684	4.996729546882918	84.95321548222729	85.00327072723226	0	0	44.35033649795684	-44.35033649795684	4.996729546882918	84.95321548222729	85.00327072723191	0	0
32.55999999999949	-0.8922402245688882	-8.300698687498127	-82.47076854549239	0	0.9399999999999999	0	11.18038271490875	1.640404200309954	-1.227546599474035	11.5517528423957	0.2016161214764186	0	0	0	-8.065438515269056	-7.627899238031529	-13.45972977215009	43.51809281455002	0.759534003802384	0	0	0	0	0	0	44.3546853088426	-44.3546853088426	4.996766778287259	84.95374810569649	85.00323349582905	0	0	44.3546853088426	-44.3546853088426	4.996766778287259	84.95374810569649	85.0032334958287	0	0
32.57999999999949	-0.8704918656656596	-8.29939103213507	-82.46010289761854	0	0.9399999999999999	0	11.16063517580999	1.612423095775153	-1.237457008573034	11.48863905555995	0.2005145780927328	0	0	0	-6.14132901911219	-9.069688564657705	-13.13216490513828	49.19844520942335	0.8586748557664687	0	0	0	0	0	0	44.35499223369013	-44.35499223369013	4.996769852923355	84.95379209070177	85.00323042119308	0	0	44.35499223369013	-44.35499223369013	4.996769852923355	84.95379209070177	85.00323042119273	0	0
32.5999999999995	-1.49939393395271	-9.627782227558313	-80.77370018421975	0	0.9399999999999999	0	9.952194607442152	2.111575212193403	-3.473961786467191	13.08114824133501	0.2283091067527617	0	0	0	-4.569059921108361	-10.87722522819779	-10.37089823304586	53.40932358374244	0.932168547799363	0	0	0	0	0	0	44.3632356653526	-44.3632356653526	4.99683966147394	84.9547907549409	85.00316061264454	0	0	44.3632356653526	-44.3632356653526	4.99683966147394	84.9547907549409	85.00316061264425	0	0
32.6199999999995	-2.145374927643287	-9.975455818955961	-79.49205943081616	0	0.9399999999999999	0	7.282263730879664	2.953114621377407	-5.013756375503923	10.65978359749018	0.1860483213262895	0	0	0	-2.643996543960949	-12.50622773667876	-8.431124721634825	59.68754006592825	1.041744096566481	0	0	0	0	0	0	44.36359225984566	-44.36359225984566	4.996843199454365	84.95484136843874	85.00315707466419	0	0	44.36359225984566	-44.36359225984566	4.996843199454365	84.95484136843874	85.0031570746639	0	0
32.6399999999995	-2.961556762772815	-9.994766437407501	-78.63220477050243	0	0.9399999999999999	0	6.848711904153236	3.705542476148979	-6.802314143926582	11.13122887054149	0.1942765935839986	0	0	0	-2.357681066075888	-13.65597792723147	-7.628058571926931	60.96970308505809	1.064122062797608	0	0	0	0	0	0	44.36386170903011	-44.36386170903011	4.996845882605144	84.95487975294878	85.00315439151352	0	0	44.36386170903011	-44.36386170903011	4.996845882605144	84.95487975294878	85.00315439151323	0	0
32.65999999999951	-3.817968987022292	-10.03009301571332	-78.39927655382159	0	0.9399999999999999	0	7.048569433266309	4.544316689212136	-7.254272410632455	12.26197179413793	0.2140117805943832	0	0	0	-2.142769190891655	-14.49614056396983	-7.368879043533439	60.640239430913	1.058371837267124	0	0	0	0	0	0	44.36400912870438	-44.36400912870438	4.996847350715529	84.95490075538306	85.00315292340322	0	0	44.36400912870438	-44.36400912870438	4.996847350715529	84.95490075538306	85.00315292340294	0	0
32.67999999999951	-4.584984264012773	-10.13524179089691	-78.60797985000656	0	0.9399999999999999	0	6.638504844915047	5.476641376314246	-7.783292979286996	11.87583384938314	0.2072724020915282	0	0	0	4.407060467560476	-17.28647720886437	-6.102468048501307	66.63684748041733	1.16303239168257	0	0	0	0	0	0	44.36936909763598	-44.36936909763598	4.996892343284644	84.95554440818921	85.00310793083548	0	0	44.36936909763598	-44.36936909763598	4.996892343284644	84.95554440818921	85.0031079308352	0	0
